<svg width="42" height="42" viewBox="0 0 42 42" fill="none" xmlns="http://www.w3.org/2000/svg">
<path d="M9.96319 22.194L11.2019 17.4263H11.3079L12.5304 22.194H9.96319ZM13.7284 26.88H16.2303L12.7015 15.12H9.96319L6.43439 26.88H8.74889L9.49866 24.0032H12.9949L13.7284 26.88Z" fill="white"/>
<path d="M17.7054 15.12V26.88H20.0199V23.1474H21.8943C24.4289 23.1474 26.0425 21.5909 26.0425 19.1459C26.0425 16.6766 24.4778 15.12 22.0085 15.12H17.7054ZM20.0199 17.0189H21.4217C22.9375 17.0189 23.6954 17.7198 23.6954 19.1297C23.6954 20.5477 22.9375 21.2404 21.4217 21.2404H20.0199V17.0189Z" fill="white"/>
<path d="M35.5614 26.88V24.8915H33.1246V17.1084H35.5614V15.12H28.3734V17.1084H30.81V24.8915H28.3734V26.88H35.5614Z" fill="white"/>
</svg>
