<svg width="32" height="32" viewBox="0 0 32 32" fill="none" xmlns="http://www.w3.org/2000/svg">
<g clip-path="url(#clip0_11_62)">
<path fill-rule="evenodd" clip-rule="evenodd" d="M16 2.06059C7.92639 2.06059 1.39131 8.56222 1.39131 16.5703C1.39131 22.4499 4.9148 27.5104 9.98707 29.7871C10.5173 30.0251 11.0366 29.9309 11.4416 29.6273C11.8568 29.3161 12.151 28.7804 12.151 28.1504V27.3901L10.3416 27.1451C10.3284 27.1433 10.3153 27.1412 10.3023 27.1387C9.30357 26.9444 8.63072 26.5937 8.13755 26.0883C7.72227 25.6627 7.46923 25.1528 7.25476 24.7207C7.22939 24.6696 7.20456 24.6196 7.18007 24.5709C6.9086 24.0315 6.71511 23.6485 6.53045 23.3561C6.35095 23.072 6.21049 22.9249 6.07215 22.8332C5.7194 22.5996 5.38175 22.2041 5.38175 21.7088C5.38175 21.4371 5.49133 21.1593 5.72884 20.9627C5.95264 20.7773 6.22183 20.7193 6.4558 20.7193C6.75243 20.7193 7.03073 20.8101 7.26309 20.9144C7.50053 21.0209 7.73564 21.1628 7.95577 21.3095C8.49156 21.6667 9.01993 22.09 9.46672 22.6101C9.93195 23.1517 10.2607 23.4965 10.7579 23.5671C11.1648 23.6248 11.581 23.6265 11.9055 23.6117C11.9197 23.5347 11.9372 23.4531 11.9585 23.3684C11.9969 23.2164 12.0506 23.0439 12.1268 22.8653C11.7587 22.7789 11.3594 22.6663 10.9579 22.5239C10.0849 22.2143 9.11397 21.734 8.46047 21.0035C7.7426 20.2011 7.29835 19.486 7.05021 18.6477C6.80871 17.8319 6.76923 16.9484 6.76923 15.8593C6.76923 14.1941 7.49084 12.7895 8.03141 12.0446C7.85375 11.4774 7.66787 10.741 7.58549 10.0423C7.53492 9.6132 7.51837 9.15908 7.58665 8.75246C7.65239 8.36104 7.82028 7.88139 8.25848 7.59112C8.6818 7.31071 9.17668 7.32219 9.56341 7.39515C9.96565 7.47103 10.3829 7.63764 10.7665 7.82751C11.3913 8.1367 12.0131 8.55095 12.4789 8.90075C13.2819 8.66488 14.7016 8.36166 15.9848 8.33344C15.9949 8.33323 16.0051 8.33323 16.0152 8.33344C17.2995 8.36168 18.6564 8.66486 19.4385 8.89962C19.9041 8.55006 20.5252 8.13636 21.1493 7.82751C21.5331 7.63764 21.9503 7.47103 22.3525 7.39515C22.7392 7.32219 23.2341 7.31071 23.6575 7.59112C24.0956 7.88139 24.2635 8.36104 24.3292 8.75246C24.3975 9.15908 24.3809 9.6132 24.3304 10.0423C24.248 10.741 24.0621 11.4774 23.8845 12.0446C24.4251 12.7895 25.1467 14.1941 25.1467 15.8593C25.1467 16.9484 25.1072 17.8319 24.8657 18.6477C24.6176 19.486 24.1733 20.2011 23.4555 21.0035C22.802 21.734 21.8309 22.2143 20.958 22.5239C20.4651 22.6987 19.9755 22.8287 19.5428 22.9203C19.7067 23.416 19.7649 23.8173 19.7649 24.0476V28.1673C19.7649 28.7952 20.0573 29.33 20.4709 29.6419C20.8747 29.9464 21.3928 30.0425 21.9232 29.8089C27.0419 27.5531 30.6087 22.4804 30.6087 16.5703C30.6087 8.56222 24.0736 2.06059 16 2.06059ZM12.6349 24.9471C12.2893 24.9965 12.6329 24.9475 12.6329 24.9475L12.6294 24.9479L12.6182 24.9495L12.5802 24.9543C12.5482 24.9583 12.503 24.9636 12.4466 24.9693C12.3338 24.9808 12.1748 24.9944 11.9847 25.0035C11.6083 25.0213 11.0921 25.0223 10.5627 24.9472C9.50736 24.7973 8.86728 24.0504 8.4518 23.5656C8.43835 23.5499 8.42515 23.5345 8.41217 23.5193C8.27876 23.364 8.13271 23.2167 7.97601 23.076C8.11377 23.33 8.25568 23.612 8.40907 23.9168L8.42241 23.9433C8.4462 23.9907 8.46911 24.0364 8.49132 24.0807C8.72397 24.5452 8.87856 24.8537 9.1324 25.1139C9.37971 25.3673 9.76709 25.6119 10.5483 25.7665L12.9398 26.0904C13.2849 26.1372 13.5423 26.4323 13.5423 26.7811V28.1504C13.5423 29.2177 13.0429 30.1679 12.2752 30.7433C11.4975 31.3264 10.4447 31.52 9.41824 31.0592C3.86928 28.5687 0 23.0248 0 16.5703C0 7.7815 7.16889 0.666656 16 0.666656C24.8311 0.666656 32 7.7815 32 16.5703C32 23.0605 28.0816 28.6177 22.4833 31.0848C21.4572 31.5371 20.4084 31.3393 19.6343 30.7556C18.87 30.1792 18.3736 29.2312 18.3736 28.1673V24.0476C18.3736 23.9543 18.3084 23.4152 17.9436 22.6903C17.8409 22.4863 17.8445 22.2449 17.9532 22.0441C18.062 21.8435 18.262 21.7088 18.4885 21.6837C18.9448 21.6333 19.716 21.4856 20.4937 21.2099C21.2857 20.9289 21.9965 20.5459 22.4193 20.0732C23.0469 19.3716 23.3595 18.8335 23.5319 18.2513C23.7108 17.6468 23.7553 16.9428 23.7553 15.8593C23.7553 14.3384 22.9559 13.06 22.5876 12.6482C22.4179 12.4586 22.3649 12.1913 22.4496 11.9511C22.6349 11.425 22.8627 10.6084 22.9487 9.87879C22.992 9.51134 22.9944 9.20514 22.9572 8.98372C22.9323 8.83479 22.8984 8.77322 22.8855 8.75374C22.8615 8.74723 22.7827 8.73242 22.61 8.765C22.3829 8.80784 22.0937 8.91486 21.7655 9.07731C21.1127 9.40034 20.4328 9.87803 20.0103 10.2192C19.8212 10.3718 19.5663 10.4146 19.3379 10.3321C18.8015 10.1383 17.3368 9.75942 16 9.72739C14.6572 9.75954 13.1085 10.1404 12.5781 10.3321C12.3496 10.4146 12.0947 10.3718 11.9056 10.2192C11.4831 9.87803 10.8032 9.40034 10.1504 9.07731C9.82213 8.91486 9.53299 8.80784 9.30596 8.765C9.13321 8.73242 9.05443 8.74723 9.03051 8.75374C9.01751 8.77322 8.98369 8.83479 8.95868 8.98372C8.92151 9.20514 8.92388 9.51134 8.9672 9.87879C9.0532 10.6084 9.281 11.425 9.46632 11.9511C9.55092 12.1913 9.49803 12.4586 9.32835 12.6482C8.96 13.06 8.16053 14.3384 8.16053 15.8593C8.16053 16.9428 8.20515 17.6468 8.38409 18.2513C8.5564 18.8335 8.86896 19.3716 9.49653 20.0732C9.91937 20.5459 10.6302 20.9289 11.4222 21.2099C12.1999 21.4856 12.9712 21.6333 13.4273 21.6837C13.7141 21.7153 13.9516 21.9211 14.0243 22.2007C14.0971 22.4803 13.99 22.776 13.7553 22.9439C13.5348 23.1015 13.3897 23.3837 13.3074 23.71C13.2686 23.864 13.2495 24.0057 13.2404 24.1084C13.2358 24.1592 13.2339 24.1989 13.2331 24.2239L13.2325 24.2492C13.2364 24.5989 12.9806 24.8977 12.6349 24.9471Z" fill="white"/>
</g>
<defs>
<clipPath id="clip0_11_62">
<rect width="32" height="32" fill="white"/>
</clipPath>
</defs>
</svg>
